<svg xmlns="http://www.w3.org/2000/svg" width="48" height="48" fill="none"><path fill="#fff" d="M46 24.075c-4.253-.022-5.403-5.804-1.474-7.416-4.003 1.419-7.083-3.626-3.95-6.47-3.272 2.687-7.91-1.012-5.948-4.744C32.482 9.078 26.844 7.171 27.397 3c-.76 4.139-6.718 4.254-7.64.148.716 4.146-4.843 6.27-7.13 2.723 2.109 3.654-2.38 7.529-5.757 4.97 3.245 2.72.367 7.88-3.69 6.618C7.169 18.917 6.25 24.74 2 24.926c4.253.02 5.403 5.803 1.473 7.415 4.004-1.419 7.084 3.626 3.95 6.47 3.272-2.687 7.911 1.012 5.95 4.744 2.145-3.633 7.783-1.726 7.23 2.445.76-4.139 6.718-4.254 7.64-.148-.716-4.146 4.842-6.27 7.13-2.723-2.109-3.654 2.38-7.529 5.757-4.97-3.245-2.72-.367-7.88 3.69-6.618-3.989-1.458-3.07-7.281 1.18-7.466"/></svg>