<svg width="48" height="48" viewBox="0 0 48 48" fill="none" xmlns="http://www.w3.org/2000/svg">
<path d="M30.4294 26.3435L46 26.5679L30.7227 23.5323L45.0381 17.3697L29.8547 20.8442L40.4391 9.35915L27.9734 18.743L32.997 3.92245L25.4058 17.5941L23.9995 2L22.5942 17.5941L15.002 3.92245L20.0266 18.743L7.56086 9.35915L18.1453 20.8442L2.96187 17.3697L17.2763 23.5323L2 26.5679L17.5706 26.3435L4.84215 35.3649L18.9759 28.7913L10.9975 42.2375L21.2502 30.4525L19.4005 46L23.9995 31.0404L28.5995 46L26.7498 30.4525L37.0025 42.2375L29.0241 28.7913L43.1569 35.3649L30.4294 26.3435Z" fill="white"/>
</svg>
